<?xml version="1.0" encoding="UTF-8"?>
<svg id="Layer_1" data-name="Layer 1" xmlns="http://www.w3.org/2000/svg" xmlns:xlink="http://www.w3.org/1999/xlink" viewBox="0 0 143.03 53.06">
  <defs>
    <style>
      .cls-1 {
        fill: url(#linear-gradient-2);
      }

      .cls-2 {
        fill: url(#linear-gradient);
      }

      .cls-3 {
        fill: #231f20;
      }
    </style>
    <linearGradient id="linear-gradient" x1="57.06" y1="24.33" x2="77.41" y2="24.33" gradientUnits="userSpaceOnUse">
      <stop offset="0" stop-color="#6696cd"/>
      <stop offset=".06" stop-color="#6391c6"/>
      <stop offset=".15" stop-color="#5c85b4"/>
      <stop offset=".25" stop-color="#517197"/>
      <stop offset=".36" stop-color="#41556e"/>
      <stop offset=".48" stop-color="#2d323b"/>
      <stop offset=".53" stop-color="#252325"/>
      <stop offset=".72" stop-color="#40556f"/>
      <stop offset=".91" stop-color="#5982b3"/>
      <stop offset="1" stop-color="#6394ce"/>
    </linearGradient>
    <linearGradient id="linear-gradient-2" x1="30.6" y1="32.33" x2="30.6" y2="1.46" xlink:href="#linear-gradient"/>
  </defs>
  <path class="cls-3" d="m43.77,27.15v-11.88h4.48c.79,0,1.39.04,1.81.11.58.1,1.07.28,1.47.56s.71.65.95,1.15c.24.49.36,1.03.36,1.62,0,1.01-.32,1.86-.96,2.56-.64.7-1.8,1.05-3.48,1.05h-3.05v4.83h-1.57Zm1.57-6.23h3.07c1.02,0,1.74-.19,2.16-.57.43-.38.64-.91.64-1.6,0-.5-.13-.92-.38-1.28-.25-.35-.58-.59-.99-.7-.26-.07-.75-.11-1.47-.11h-3.04v4.25Z"/>
  <path class="cls-3" d="m92.35,22.93l1.57.4c-.33,1.29-.92,2.28-1.78,2.95-.86.68-1.9,1.02-3.14,1.02s-2.32-.26-3.12-.78c-.8-.52-1.41-1.28-1.83-2.26-.42-.99-.63-2.05-.63-3.18,0-1.24.24-2.32.71-3.24s1.14-1.62,2.02-2.1,1.83-.72,2.88-.72c1.19,0,2.19.3,3,.91.81.6,1.37,1.46,1.69,2.55l-1.55.36c-.28-.86-.68-1.49-1.2-1.89-.52-.39-1.18-.59-1.98-.59-.91,0-1.68.22-2.29.66s-1.04,1.02-1.29,1.76c-.25.74-.37,1.5-.37,2.28,0,1.01.15,1.89.44,2.65.29.75.75,1.32,1.37,1.69.62.37,1.29.56,2.02.56.88,0,1.63-.25,2.24-.76s1.02-1.26,1.24-2.26Z"/>
  <path class="cls-3" d="m100.38,27.12v-11.88h8.59v1.4h-7.02v3.64h6.57v1.39h-6.57v4.04h7.29v1.4h-8.86Z"/>
  <path class="cls-3" d="m26.16,48.46c35.22,8.33,77.71,2.97,79.43,2.14s37.02-4.77,37.44-18.37c0,0,.39-13.05-20.28-15.63,0,0-3.13-.51-9.35-.7,0,0,26.98-.17,28.27,15.71s-52.91,20.81-63.5,20.08c0,0-32.74,1.75-60.23-6.47,0,0-22.75-5.36-16.21-17.24,0,0-7.64,7.92,9.16,15.52,0,0,8.84,3.45,15.26,4.97Z"/>
  <path class="cls-2" d="m75.2,9.3c-.35-2.14-1.55-9.93-4.9-9.26-2.99.6-5.46,6.42-5.46,6.42-9.32,18.3-7.67,24.38-7.67,24.38,6.35-7.18,9.67-10.71,13.88-3.66,4.21,7.05,6.35,21.48,6.35,21.48-.21-22.93-1.86-37.23-2.21-39.37Zm-6.45,10.73l-3.55-2.14,2.39-6.06s1.61,2.05,1.15,8.2Z"/>
  <path class="cls-1" d="m58.56,5.01c1.84.11-14.71-3.94-21.62-3.52s-15.96.69-22.38,6.84c0,0-6.8,7.94,7.08,10.88,0,0,5.63.86,8.46,2s2.69,2.69,2.56,3.9-1.66,3.32-7.56,3.66-12.43-3.45-16.82-3.59-5.77,2.07-5.77,2.07c0,0,.9-1.69,4.97-.9s13.02,5.49,18.1,5.91,11.85-1.04,13.02-6.35-4.8-7.98-11.4-9.01c0,0-4.25-.79-8.18-1.52s-5.87-.52-5.77-3.76,7.49-6.32,17.23-6.63,12.81-.86,28.08.03Z"/>
  <circle class="cls-3" cx="130.74" cy="18.76" r="3.14"/>
</svg>